<?xml version="1.0" encoding="utf-8"?>
<svg version="1.1" id="Layer_1" xmlns="http://www.w3.org/2000/svg" xmlns:xlink="http://www.w3.org/1999/xlink" 
     viewBox="0 0 810 310" xml:space="preserve">
<defs>
    <linearGradient id="textGradient" x1="0%" y1="0%" x2="100%" y2="0%">
        <stop offset="0%" style="stop-color:#FF5023;stop-opacity:1" />
        <stop offset="100%" style="stop-color:#FF9811;stop-opacity:1" />
    </linearGradient>
</defs>
<g id="XMLID_14_">
    <path id="XMLID_244_" style="fill:#FF9811;" d="M255,100C255,44.771,210.228,0,155,0S55,44.771,55,100
        c0,44.776,29.43,82.676,70,95.419V270l30,10l30-10v-74.581C225.57,182.676,255,144.776,255,100z"/>
    <path id="XMLID_245_" style="fill:#FF5023;" d="M255,100C255,44.771,210.228,0,155,0v270h30v-74.581
        C225.57,182.676,255,144.776,255,100z"/>
    <circle id="XMLID_307_" style="fill:#CCF7F9;" cx="155" cy="100" r="60"/>
    <path id="XMLID_308_" style="fill:#00D7DF;" d="M155,40c33.137,0,60,26.863,60,60s-26.863,60-60,60"/>
    <rect id="XMLID_309_" x="125" y="270" style="fill:#FFDA44;" width="60" height="40"/>
    <rect id="XMLID_311_" x="155" y="270" style="fill:#FF9811;" width="30" height="40"/>
</g>
<text x="280" y="240" font-family="Arial, sans-serif" font-size="200" font-weight="bold" fill="url(#textGradient)">JOBS</text>
</svg>